<svg xmlns="http://www.w3.org/2000/svg" viewBox="-163.840 -1443.840 2375.680 1607.680">
  <g transform="scale(1,-1)">
    <path fill="#000" d="M640 1280H1408Q1538 1280 1656.5 1229.0Q1775 1178 1860.5 1092.5Q1946 1007 1997.0 888.5Q2048 770 2048.0 640.0Q2048 510 1997.0 391.5Q1946 273 1860.5 187.5Q1775 102 1656.5 51.0Q1538 0 1408 0H640Q510 0 391.5 51.0Q273 102 187.5 187.5Q102 273 51.0 391.5Q0 510 0.0 640.0Q0 770 51.0 888.5Q102 1007 187.5 1092.5Q273 1178 391.5 1229.0Q510 1280 640 1280ZM1209.5 168.5Q1304 128 1408.0 128.0Q1512 128 1606.5 168.5Q1701 209 1770.0 278.0Q1839 347 1879.5 441.5Q1920 536 1920.0 640.0Q1920 744 1879.5 838.5Q1839 933 1770.0 1002.0Q1701 1071 1606.5 1111.5Q1512 1152 1408.0 1152.0Q1304 1152 1209.5 1111.5Q1115 1071 1046.0 1002.0Q977 933 936.5 838.5Q896 744 896.0 640.0Q896 536 936.5 441.5Q977 347 1046.0 278.0Q1115 209 1209.5 168.5Z"/>
  </g>
</svg>
